<svg width="24" height="25" viewBox="0 0 24 25" fill="none" xmlns="http://www.w3.org/2000/svg">
<mask id="mask0_331170_2809" style="mask-type:alpha" maskUnits="userSpaceOnUse" x="0" y="0" width="24" height="25">
<rect y="0.5" width="24" height="24" fill="#D9D9D9"/>
</mask>
<g mask="url(#mask0_331170_2809)">
<mask id="mask1_331170_2809" style="mask-type:alpha" maskUnits="userSpaceOnUse" x="2" y="2" width="26" height="27">
<rect x="2" y="2.53418" width="26" height="26" fill="#D9D9D9"/>
</mask>
<g mask="url(#mask1_331170_2809)">
<path d="M12.8667 20.3273C12.6211 20.3273 12.4153 20.2442 12.2492 20.0781C12.0831 19.912 12 19.7062 12 19.4606C12 19.2151 12.0831 19.0092 12.2492 18.8431C12.4153 18.677 12.6211 18.594 12.8667 18.594H18.0667V6.46063H12.8667C12.6211 6.46063 12.4153 6.37757 12.2492 6.21146C12.0831 6.04535 12 5.83952 12 5.59396C12 5.34841 12.0831 5.14257 12.2492 4.97646C12.4153 4.81035 12.6211 4.72729 12.8667 4.72729H18.0667C18.5433 4.72729 18.9514 4.89702 19.2908 5.23646C19.6303 5.57591 19.8 5.98396 19.8 6.46063V18.594C19.8 19.0706 19.6303 19.4787 19.2908 19.8181C18.9514 20.1576 18.5433 20.3273 18.0667 20.3273H12.8667ZM11.285 13.394H5.06666C4.82111 13.394 4.61527 13.3109 4.44916 13.1448C4.28305 12.9787 4.2 12.7729 4.2 12.5273C4.2 12.2817 4.28305 12.0759 4.44916 11.9098C4.61527 11.7437 4.82111 11.6606 5.06666 11.6606H11.285L9.66 10.0356C9.50111 9.87674 9.42166 9.68174 9.42166 9.45063C9.42166 9.21952 9.50111 9.01729 9.66 8.84396C9.81889 8.67063 10.0211 8.58035 10.2667 8.57313C10.5122 8.56591 10.7217 8.64896 10.895 8.82229L13.9933 11.9206C14.1667 12.094 14.2533 12.2962 14.2533 12.5273C14.2533 12.7584 14.1667 12.9606 13.9933 13.134L10.895 16.2323C10.7217 16.4056 10.5158 16.4887 10.2775 16.4815C10.0392 16.4742 9.83333 16.384 9.66 16.2106C9.50111 16.0373 9.42527 15.8315 9.4325 15.5931C9.43972 15.3548 9.52277 15.1562 9.68166 14.9973L11.285 13.394Z" fill="#CDCDCD"/>
</g>
</g>
</svg>
